# xmcd CD database file
#
# Track frame offsets:
#	150
#	60674
#	81958
#	116546
#	131848
#	226411
#
# Disc length: 3769 seconds
#
# Revision: 2
# Processed by: cddbd v1.5.1PL0 Copyright (c) Steve Scherf et al.
# Submitted via: CDex 1.51
#
DISCID=4c0eb706
DTITLE=Shankar, Ravi - The Teacher - Key Works
DYEAR=2002
DGENRE=Classical
TTITLE0=Raga: Jhinjhoti
TTITLE1=Raga: Patdeep
TTITLE2=Raga: Devgiri Bilawal
TTITLE3=Raga: Rasiya
TTITLE4=Raga: Rasia
TTITLE5=Farewell, "My Friend" Raga: Rajya-Kalyan
EXTD=YEAR: 2002
EXTT0=
EXTT1=
EXTT2=
EXTT3=
EXTT4=
EXTT5=
PLAYORDER=
